<?xml version="1.0" encoding="UTF-8"?>
<svg version="1.1" xmlns="http://www.w3.org/2000/svg" width="512" height="512">
<path d="M0 0 C1.62254223 -0.01651195 3.24501314 -0.04373923 4.8671875 -0.08203125 C21.13901028 -0.46364838 21.13901028 -0.46364838 26.85498047 3.98266602 C27.318479 4.43391846 27.78197754 4.8851709 28.25952148 5.35009766 C28.75331299 5.82648682 29.24710449 6.30287598 29.75585938 6.79370117 C42.7996065 20.92769952 35.25952148 52.51727622 35.25952148 64.35009766 C105.21952148 64.35009766 175.17952148 64.35009766 247.25952148 64.35009766 C247.25952148 48.84009766 247.25952148 33.33009766 247.25952148 17.35009766 C250.87210225 9.22179093 254.00659972 3.62686848 262.25952148 0.35009766 C264.907707 0.1464607 267.44769881 0.04599298 270.09545898 0.04931641 C270.85243073 0.04503128 271.60940247 0.04074615 272.38931274 0.03633118 C273.98796592 0.03059869 275.58664518 0.03007965 277.18530273 0.03442383 C279.61935439 0.037578 282.05218298 0.01413293 284.48608398 -0.01123047 C286.04337413 -0.01350431 287.60066752 -0.01420656 289.15795898 -0.01318359 C289.88002533 -0.02239334 290.60209167 -0.03160309 291.34603882 -0.04109192 C297.4076101 0.01383727 301.27560991 1.69683801 305.88452148 5.53759766 C311.80887221 12.55327615 312.83529342 18.58570038 312.65014648 27.63134766 C312.64448669 28.68543823 312.6388269 29.73952881 312.63299561 30.82556152 C312.61073883 34.16755019 312.56056126 37.50843713 312.50952148 40.85009766 C312.48944271 43.12612376 312.47119436 45.40216679 312.45483398 47.67822266 C312.41090929 53.23588547 312.34410485 58.79291282 312.25952148 64.35009766 C313.65690552 64.31867676 313.65690552 64.31867676 315.08251953 64.28662109 C318.60329461 64.21765903 322.12333234 64.16792254 325.64453125 64.13037109 C327.1563666 64.11049329 328.66812758 64.08338093 330.1796875 64.04833984 C348.98892566 63.62383663 365.2135457 68.93512896 379.14672852 82.02026367 C391.1620012 93.92447081 397.44701002 109.61883833 397.53633249 126.32569236 C397.53323528 127.63200828 397.53013808 128.93832421 397.52694702 130.28422546 C397.53068727 131.70079868 397.53529028 133.11736984 397.54067767 134.53393775 C397.55287695 138.41293021 397.55265083 142.29183623 397.55028892 146.17084348 C397.54987997 150.35982481 397.56092739 154.54877872 397.57040405 158.73774719 C397.5869985 166.93997579 397.59251291 175.14217564 397.59362881 183.34441962 C397.59458008 190.01412562 397.59869435 196.68382216 397.60503006 203.35352516 C397.62263875 222.27652093 397.63186959 241.19949404 397.63036911 260.12249806 C397.63024924 261.65187983 397.63024924 261.65187983 397.63012695 263.2121582 C397.63004519 264.23299564 397.62996343 265.25383307 397.62987919 266.30560497 C397.62906655 282.84419438 397.64819977 299.38269267 397.67640369 315.92125573 C397.70515582 332.91583475 397.71894268 349.91036937 397.71721613 366.90497333 C397.71655301 376.44093189 397.72201138 385.97679494 397.74357224 395.51273155 C397.76181476 403.63289459 397.76610624 411.75291881 397.75255339 419.87309351 C397.74603902 424.01247648 397.74585078 428.15159338 397.76325989 432.29095078 C397.77906409 436.08792503 397.77605294 439.88442387 397.75869162 443.68138704 C397.75420239 445.68953439 397.7692212 447.69769691 397.78517091 449.70578593 C397.65139847 467.4387388 390.5757101 483.14844802 378.15014648 495.68994141 C363.51134758 509.16159283 347.07933216 512.66003201 327.84465027 512.61079407 C326.1707644 512.61381714 324.49687992 512.61770741 322.82299787 512.62238663 C318.23743649 512.63265532 313.65195339 512.63048768 309.06638563 512.62620604 C304.11533924 512.62373676 299.1643116 512.63275552 294.21327209 512.64024353 C284.51891024 512.6529871 274.82457609 512.65478463 265.13020726 512.65244327 C257.24913297 512.6506595 249.36806708 512.65241101 241.48699379 512.65666771 C240.36488121 512.6572629 239.24276863 512.65785809 238.08665264 512.65847131 C235.80699322 512.65968308 233.5273338 512.66089721 231.24767438 512.66211369 C209.87292161 512.67298799 188.49818461 512.6708273 167.12343094 512.66472884 C147.577314 512.65956027 128.0312469 512.67081377 108.48513981 512.68982706 C88.40673189 512.70920815 68.32834754 512.71746095 48.2499302 512.71370381 C36.98084995 512.71179212 25.71181211 512.71427622 14.44273949 512.72841835 C4.84879847 512.74033658 -4.74507403 512.74173207 -14.339016 512.72962818 C-19.2316285 512.72374253 -24.12411569 512.72263145 -29.01671982 512.73463058 C-33.50064354 512.74549941 -37.98433745 512.74237412 -42.46825048 512.7283689 C-44.08527702 512.72572472 -45.70232164 512.72807969 -47.31933043 512.73610476 C-66.47308094 512.82452109 -82.62658147 507.97083665 -96.72900391 494.62939453 C-108.65560823 482.68435651 -114.92811412 467.05385016 -115.01728952 450.37450296 C-115.01419232 449.06818703 -115.01109511 447.76187111 -115.00790405 446.41596985 C-115.0116443 444.99939663 -115.01624731 443.58282547 -115.0216347 442.16625756 C-115.03383398 438.2872651 -115.03360786 434.40835908 -115.03124595 430.52935183 C-115.030837 426.3403705 -115.04188442 422.1514166 -115.05136108 417.96244812 C-115.06795553 409.76021952 -115.07346994 401.55801967 -115.07458584 393.35577569 C-115.07553712 386.68606969 -115.07965138 380.01637316 -115.08598709 373.34667015 C-115.10359578 354.42367438 -115.11282662 335.50070128 -115.11132614 316.57769725 C-115.11124623 315.55810941 -115.11116632 314.53852156 -115.11108398 313.48803711 C-115.11096134 311.95678096 -115.11096134 311.95678096 -115.11083622 310.39459034 C-115.11002358 293.85600093 -115.1291568 277.31750264 -115.15736072 260.77893958 C-115.18611285 243.78436056 -115.19989971 226.78982594 -115.19817317 209.79522198 C-115.19751004 200.25926342 -115.20296842 190.72340037 -115.22452927 181.18746376 C-115.24277179 173.06730072 -115.24706327 164.9472765 -115.23351042 156.8271018 C-115.22699605 152.68771883 -115.22680781 148.54860193 -115.24421692 144.40924454 C-115.26002112 140.61227028 -115.25700997 136.81577144 -115.23964866 133.01880827 C-115.23515942 131.01066093 -115.25017823 129.0024984 -115.26612794 126.99440938 C-115.1323555 109.26145652 -108.05666713 93.55174729 -95.63110352 81.01025391 C-84.58277273 70.84280355 -69.86703926 63.92534386 -54.74047852 64.15478516 C-54.01932861 64.15761505 -53.29817871 64.16044495 -52.55517578 64.1633606 C-50.28343105 64.1744307 -48.01210124 64.19950871 -45.74047852 64.22509766 C-44.18709885 64.23514455 -42.63371292 64.24426739 -41.08032227 64.25244141 C-37.30021789 64.27432655 -33.5204182 64.30876252 -29.74047852 64.35009766 C-29.75158157 63.77095612 -29.76268463 63.19181458 -29.77412415 62.59512329 C-29.88537155 56.52744077 -29.96041473 50.46005135 -30.01513672 44.39160156 C-30.04016761 42.13171608 -30.07420289 39.87191064 -30.11767578 37.61230469 C-30.17883085 34.35022146 -30.20680354 31.08921521 -30.22875977 27.82666016 C-30.25456619 26.8283316 -30.28037262 25.83000305 -30.30696106 24.80142212 C-30.30975046 17.70897416 -28.7876514 12.24324413 -24.74047852 6.35009766 C-17.45486182 -0.60509974 -9.37504127 0.06981514 0 0 Z M-71.74047852 215.35009766 C-71.80235352 254.12509766 -71.86422852 292.90009766 -71.92797852 332.85009766 C-71.95529053 345.098125 -71.98260254 357.34615234 -72.01074219 369.96533203 C-72.02077484 380.93438594 -72.02077484 380.93438594 -72.02680969 391.90344238 C-72.02960717 396.79313227 -72.04085974 401.68272467 -72.0572052 406.5723877 C-72.07777798 412.8092249 -72.08395277 419.04592028 -72.07969534 425.28278828 C-72.08058564 427.57185312 -72.08653714 429.86092292 -72.09812391 432.14995861 C-72.11305335 435.2430146 -72.10944589 438.33552014 -72.10124207 441.42858887 C-72.10998006 442.3232914 -72.11871805 443.21799393 -72.12772083 444.13980865 C-72.07254783 451.88344873 -70.40049492 458.69008125 -64.74047852 464.35009766 C-58.8768907 468.40528923 -54.20823824 469.47409386 -47.17985916 469.48152542 C-46.51917482 469.48357805 -45.85849048 469.48563069 -45.1777854 469.48774552 C-42.95430005 469.49341951 -40.73087657 469.49195779 -38.50738525 469.49053955 C-36.90096171 469.49312296 -35.2945388 469.49613605 -33.68811679 469.49954295 C-29.26598209 469.50761906 -24.84386361 469.50940286 -20.42172241 469.51014042 C-15.65540124 469.5119899 -10.88908851 469.5195367 -6.12277222 469.52627563 C4.30281426 469.53986368 14.72839689 469.54588437 25.15399075 469.55028629 C31.66216298 469.55304784 38.17033372 469.55728502 44.67850494 469.56179047 C62.69320457 469.5739836 80.707903 469.58428292 98.72260666 469.58766556 C99.87582207 469.58788512 101.02903747 469.58810469 102.2171988 469.58833091 C103.95118927 469.58865833 103.95118927 469.58865833 105.72020984 469.58899236 C108.0627408 469.58943583 110.40527177 469.58988239 112.74780273 469.59033203 C114.49077164 469.59066418 114.49077164 469.59066418 116.26895204 469.59100303 C135.10030266 469.59495167 153.9316146 469.61240751 172.76295027 469.63569155 C192.09084918 469.65939694 211.41872867 469.67186703 230.74664235 469.67303348 C241.60096038 469.67395068 252.45522801 469.67971437 263.30953217 469.69785309 C272.55163392 469.71324308 281.7936697 469.71838103 291.03578183 469.71011499 C295.75167096 469.70620463 300.46742719 469.70715693 305.18330002 469.72117233 C309.50129033 469.73388795 313.81904754 469.73273433 318.13703743 469.72058162 C319.69829031 469.71862057 321.25955957 469.72172189 322.82078943 469.73042598 C331.88430286 469.77775319 339.15622258 469.5976515 347.00952148 464.60009766 C351.22125148 460.38836766 354.01142538 455.36529384 354.38371998 449.34006476 C354.38334026 448.62467166 354.38296054 447.90927856 354.38256931 447.17220688 C354.38456018 446.34190208 354.38655106 445.51159729 354.38860226 444.65613174 C354.38568959 443.74977856 354.38277693 442.84342537 354.379776 441.90960693 C354.38063202 440.94480408 354.38148804 439.98000122 354.38237 438.98596191 C354.38402854 435.73460051 354.37849606 432.48329031 354.37304688 429.23193359 C354.37274063 426.86854173 354.37287387 424.50514978 354.37341213 422.14175797 C354.37363826 415.80206795 354.36783458 409.46239675 354.3608017 403.12271118 C354.35511462 397.17783548 354.354839 391.2329644 354.35412598 385.28808594 C354.34887476 367.89208734 354.33491366 350.49609226 354.32202148 333.10009766 C354.30139648 294.24259766 354.28077148 255.38509766 354.25952148 215.35009766 C213.67952148 215.35009766 73.09952148 215.35009766 -71.74047852 215.35009766 Z " fill="#000000" transform="translate(114.740478515625,-0.35009765625)"/>
<path d="M0 0 C5.74841562 3.32865134 9.60440035 8.15992367 11.6875 14.4375 C12.05859375 16.98046875 12.05859375 16.98046875 12.125 19.625 C12.16496094 20.48480469 12.20492187 21.34460938 12.24609375 22.23046875 C10.33709116 33.19054656 2.45281262 40.39032662 -5.10424805 47.8762207 C-6.31145483 49.09021402 -7.51759784 50.30526594 -8.72276306 51.52128601 C-11.9800403 54.80123953 -15.25279266 58.06532068 -18.52936149 61.32598901 C-21.96750883 64.75141681 -25.39337147 68.18909687 -28.82124329 71.62480164 C-34.57816857 77.39080586 -40.34551519 83.14622816 -46.11889648 88.89575195 C-52.7794607 95.52910854 -59.42182164 102.18028487 -66.05501527 108.84100276 C-71.76575133 114.57447882 -77.48623629 120.298091 -83.21488029 126.01367444 C-86.62969343 129.42072001 -90.04110422 132.83098806 -93.44373131 136.2502079 C-96.64427837 139.46527155 -99.85695071 142.66771876 -103.0791111 145.86111641 C-104.25480351 147.03023639 -105.42633423 148.20355989 -106.59318542 149.38150406 C-113.57381039 156.42231235 -120.35037688 163.02578486 -130.4140625 165.06640625 C-137.69890384 164.8746999 -142.80614696 163.68676809 -148.23046875 158.66015625 C-153.19450893 153.33941857 -157.32109839 147.37009076 -161.4921875 141.42578125 C-164.61540231 136.98429743 -167.8353562 132.61629302 -171.0625 128.25 C-171.65426025 127.44844482 -172.24602051 126.64688965 -172.85571289 125.82104492 C-174.67382476 123.35925826 -176.49303939 120.89828995 -178.3125 118.4375 C-185.34696058 108.920855 -192.36935165 99.39607119 -199.3125 89.8125 C-199.82820557 89.10279053 -200.34391113 88.39308105 -200.87524414 87.66186523 C-214.75354358 68.4518408 -214.75354358 68.4518408 -213.3125 58.4375 C-211.16256388 50.85479118 -207.07061907 46.43718376 -200.515625 42.3046875 C-194.95701626 40.11672449 -187.46902063 40.35512052 -181.86328125 42.27734375 C-173.22446547 47.3180673 -167.79617034 56.42113588 -162.171875 64.41015625 C-159.01312184 68.88431402 -155.75786809 73.28525419 -152.5 77.6875 C-147.64926142 84.2581551 -142.806241 90.83420112 -138 97.4375 C-137.16408325 98.57687012 -137.16408325 98.57687012 -136.3112793 99.73925781 C-135.79992432 100.44405273 -135.28856934 101.14884766 -134.76171875 101.875 C-134.08629028 102.80119141 -134.08629028 102.80119141 -133.3972168 103.74609375 C-132.3125 105.4375 -132.3125 105.4375 -131.3125 108.4375 C-125.0791221 103.16765731 -119.29858049 97.53303337 -113.56689453 91.72607422 C-112.61669737 90.76738895 -111.66622965 89.80897178 -110.71551514 88.85079956 C-108.68344117 86.80212803 -106.65278555 84.75206484 -104.62311172 82.70101547 C-101.40662726 79.45164893 -98.18396267 76.20845894 -94.95993042 72.96658325 C-93.85164828 71.85204129 -92.74336619 70.73749929 -91.63508415 69.62295723 C-91.08046179 69.06521874 -90.52583942 68.50748024 -89.95441031 67.93284059 C-82.46089248 60.39646835 -74.97201084 52.85557789 -67.49755859 45.30029297 C-62.43884905 40.18697259 -57.37118796 35.08270927 -52.29325187 29.98847973 C-49.61352174 27.29941696 -46.93850236 24.60602533 -44.27447891 21.90139389 C-41.76864152 19.3574614 -39.25113856 16.82566609 -36.72457123 14.3023262 C-35.37023469 12.94364787 -34.02836141 11.57258076 -32.68704224 10.2010498 C-23.64061357 1.21401532 -12.82545463 -5.6187706 0 0 Z " fill="#000000" transform="translate(367.3125,262.5625)"/>
</svg>
