<?xml version="1.0" encoding="UTF-8"?>
<svg version="1.1" xmlns="http://www.w3.org/2000/svg" width="512" height="512">
<path d="M0 0 C0.95769791 -0.00979385 1.91539581 -0.01958771 2.90211487 -0.02967834 C23.51506558 -0.19707192 43.56027456 -0.20439578 63.7890625 4.23828125 C64.81386719 4.45790527 65.83867187 4.6775293 66.89453125 4.90380859 C112.74661575 14.96421161 153.20645552 36.64235396 187.7890625 68.23828125 C189.18898438 69.48158203 189.18898438 69.48158203 190.6171875 70.75 C196.09780024 75.63912585 201.08867601 80.6057506 205.7890625 86.23828125 C206.58570313 87.13546875 207.38234375 88.03265625 208.203125 88.95703125 C244.73970217 130.36291328 268.88969039 188.36842846 268.95703125 243.85546875 C268.96035965 244.83387726 268.96368805 245.81228577 268.96711731 246.82034302 C268.97214588 248.87582942 268.97452691 250.93132386 268.97436523 252.98681641 C268.97655185 256.09812097 268.99475183 259.20907041 269.01367188 262.3203125 C269.09882812 291.52466118 269.09882812 291.52466118 260.375 300.73046875 C253.80907885 306.6643761 247.69023437 307.87611395 239.078125 307.6484375 C232.35047515 306.80947879 227.00852588 303.88494128 222.3515625 298.98828125 C216.10439444 290.41277548 216.57304778 281.64544207 217.10562134 271.48803711 C219.60146528 222.48057008 207.50587313 172.43230368 176.7890625 133.23828125 C176.12519531 132.36558594 175.46132813 131.49289063 174.77734375 130.59375 C169.49793234 123.79369676 163.68557092 117.50059964 157.7890625 111.23828125 C157.13292969 110.52800781 156.47679687 109.81773438 155.80078125 109.0859375 C142.01569901 94.65145096 124.35401488 83.46196241 106.7890625 74.23828125 C106.13486328 73.89410156 105.48066406 73.54992187 104.80664062 73.1953125 C80.40450368 60.57101568 51.76644634 52.19739745 24.1796875 52.03515625 C23.379366 52.02809662 22.57904449 52.02103699 21.75447083 52.01376343 C-2.38846395 51.77517312 -2.38846395 51.77517312 -26.2109375 55.23828125 C-27.11134766 55.42632324 -28.01175781 55.61436523 -28.93945312 55.80810547 C-82.20335361 67.03424948 -128.7223843 98.69053887 -158.78369141 144.00878906 C-162.96796133 150.54501091 -166.64876856 157.34810665 -170.2109375 164.23828125 C-170.53400879 164.85316406 -170.85708008 165.46804687 -171.18994141 166.1015625 C-183.46044722 189.71328782 -191.1722672 217.98533033 -191.44921875 244.63671875 C-191.46390953 245.81279694 -191.46390953 245.81279694 -191.47889709 247.01263428 C-192.05768542 305.45908965 -173.80975135 357.68075269 -133.2109375 400.23828125 C-132.41171875 401.09035156 -131.6125 401.94242187 -130.7890625 402.8203125 C-94.71442249 440.25069878 -41.36925487 460.4280169 10.03173828 461.40478516 C43.99174183 461.720658 79.07447999 453.93252741 108.7890625 437.23828125 C110.40859098 436.3419722 112.0283979 435.44616614 113.6484375 434.55078125 C116.08508413 433.20158731 118.5183687 431.84792006 120.94165039 430.47485352 C121.6608667 430.06807373 122.38008301 429.66129395 123.12109375 429.2421875 C123.75764893 428.87939697 124.3942041 428.51660645 125.05004883 428.14282227 C131.46503908 424.80609071 139.82187025 425.41135882 146.6015625 427.30078125 C153.0617541 431.22756438 158.40939041 435.41544486 161.16015625 442.65625 C163.15548846 450.8482661 162.72279217 458.70694923 158.4296875 466.04296875 C137.56465324 493.96237173 81.79098369 505.79000208 49.859375 510.6953125 C41.73258175 511.81635005 33.6833485 512.406777 25.48046875 512.4765625 C24.52418579 512.48635635 23.56790283 512.49615021 22.5826416 512.50624084 C2.00030215 512.67368961 -18.01217456 512.67436415 -38.2109375 508.23828125 C-39.23574219 508.01865723 -40.26054687 507.7990332 -41.31640625 507.57275391 C-87.05515757 497.53721732 -127.72219114 475.74845406 -162.2109375 444.23828125 C-163.14421875 443.40941406 -164.0775 442.58054687 -165.0390625 441.7265625 C-170.51967524 436.83743665 -175.51055101 431.8708119 -180.2109375 426.23828125 C-181.00757813 425.34109375 -181.80421875 424.44390625 -182.625 423.51953125 C-219.04623797 382.25016379 -242.98168048 324.30217192 -243.44921875 269.02734375 C-243.46390953 267.59079689 -243.46390953 267.59079689 -243.47889709 266.12522888 C-243.64629067 245.51227817 -243.65361453 225.46706919 -239.2109375 205.23828125 C-238.88150146 203.70107422 -238.88150146 203.70107422 -238.54541016 202.1328125 C-228.68715992 157.20207539 -207.44821295 116.66183957 -176.46484375 82.71484375 C-174.9367179 81.0357592 -173.42407892 79.34247302 -171.92578125 77.63671875 C-167.30885903 72.39417585 -162.56127694 67.71698827 -157.2109375 63.23828125 C-156.31246094 62.44035156 -155.41398437 61.64242187 -154.48828125 60.8203125 C-113.15041703 24.35441085 -55.34756275 0.46815349 0 0 Z " fill="#000000" transform="translate(243.2109375,-0.23828125)"/>
<path d="M0 0 C3.00612451 2.92083322 5.96209713 5.88422249 8.9029541 8.8704071 C9.98802153 9.96108232 11.07376252 11.0510878 12.16014099 12.14045715 C14.99276212 14.98443405 17.81624988 17.8373074 20.63781738 20.69224548 C23.52858961 23.61392033 26.42806583 26.52693014 29.32678223 29.4407196 C34.99475524 35.14069283 40.65309189 40.85011125 46.30529785 46.5657196 C50.008793 45.01921867 52.31992174 42.76995113 55.11462402 39.91996765 C55.57867645 39.4497821 56.04272888 38.97959656 56.52084351 38.49516296 C57.52531869 37.47641475 58.52753623 36.45543663 59.52773094 35.43248558 C61.11707667 33.80821494 62.71353323 32.19125621 64.31221008 30.57617188 C68.85573741 25.98388545 73.38810668 21.38071015 77.91101074 16.76811218 C80.68206826 13.94312367 83.46308761 11.12825459 86.25023842 8.31914711 C87.30451534 7.25254594 88.3549956 6.1821768 89.40138817 5.10783958 C97.38055903 -3.08236803 104.65335297 -10.02804822 116.53967285 -10.5592804 C124.25644695 -10.21049965 130.0596365 -7.75041027 135.6138916 -2.37568665 C140.96229771 3.76324601 142.58243974 10.48241456 142.30529785 18.5657196 C140.29412427 30.55540829 130.45190836 38.69951955 122.21936035 46.8469696 C121.15132484 47.91126713 120.08373583 48.97601288 119.01657104 50.04118347 C116.22958119 52.82059869 113.43663509 55.59395047 110.64233398 58.36601257 C107.78282225 61.20493174 104.92908318 64.04964116 102.0748291 66.8938446 C96.49056661 72.45676628 90.89998784 78.01328515 85.30529785 83.5657196 C86.85179879 87.26921475 89.10106632 89.58034349 91.9510498 92.37504578 C92.42123535 92.83909821 92.8914209 93.30315063 93.37585449 93.78126526 C94.39460271 94.78574044 95.41558083 95.78795798 96.43853188 96.78815269 C98.06280251 98.37749843 99.67976124 99.97395499 101.29484558 101.57263184 C105.88713201 106.11615916 110.49030731 110.64852843 115.10290527 115.1714325 C117.92789379 117.94249001 120.74276286 120.72350936 123.55187035 123.51066017 C124.61847151 124.56493709 125.68884065 125.61541735 126.76317787 126.66180992 C134.95338548 134.64098078 141.89906568 141.91377472 142.43029785 153.8000946 C142.0815171 161.5168687 139.62142773 167.32005825 134.2467041 172.87431335 C128.08548846 178.24213302 121.40609838 179.80364521 113.30529785 179.5657196 C100.17023124 178.03096979 91.29036756 165.69818891 82.48498535 156.84306335 C81.49058789 155.84679447 80.49596472 154.85075083 79.50112915 153.85491943 C76.91796672 151.26798875 74.33782466 148.67806702 71.75836182 146.08744812 C69.11180985 143.43055766 66.46232693 140.7765933 63.81311035 138.12236023 C58.64101318 132.93962651 53.47211243 127.75372029 48.30529785 122.5657196 C44.55347697 124.12371352 42.21655678 126.43630103 39.38830566 129.31913757 C38.91289337 129.80068298 38.43748108 130.28222839 37.94766235 130.77836609 C36.91863094 131.82167146 35.89185661 132.86720684 34.86710358 133.91471481 C33.2402158 135.57650475 31.60623343 137.23100398 29.97003174 138.88362122 C25.31990719 143.5825319 20.68098432 148.29238105 16.0513916 153.01152039 C13.21545216 155.90129536 10.36962718 158.78103156 7.51766205 161.65498734 C6.43745129 162.74754571 5.36104062 163.84387577 4.2886734 164.94413376 C-3.60067301 173.03673848 -10.14279961 179.02168544 -21.8939209 179.65556335 C-29.61937404 179.40774547 -35.45757119 176.87359481 -41.0032959 171.50712585 C-46.35170201 165.3681932 -47.97184404 158.64902465 -47.69470215 150.5657196 C-45.68352856 138.57603092 -35.84131265 130.43191966 -27.60876465 122.2844696 C-26.54072914 121.22017208 -25.47314013 120.15542632 -24.40597534 119.09025574 C-21.61898549 116.31084052 -18.82603939 113.53748874 -16.03173828 110.76542664 C-13.17222655 107.92650747 -10.31848747 105.08179805 -7.4642334 102.2375946 C-1.8799709 96.67467293 3.71060787 91.11815406 9.30529785 85.5657196 C7.74730394 81.81389872 5.43471642 79.47697853 2.55187988 76.64872742 C1.82956177 75.93560898 1.82956177 75.93560898 1.09265137 75.20808411 C0.049346 74.17905269 -0.99618938 73.15227837 -2.04369736 72.12752533 C-3.7054873 70.50063756 -5.35998652 68.86665519 -7.01260376 67.23045349 C-11.71151445 62.58032894 -16.42136359 57.94140607 -21.14050293 53.31181335 C-24.03027791 50.47587391 -26.91001411 47.63004893 -29.78396988 44.7780838 C-30.87652826 43.69787304 -31.97285831 42.62146237 -33.0731163 41.54909515 C-41.16572103 33.65974874 -47.15066799 27.11762214 -47.7845459 15.36650085 C-47.53657992 7.63643105 -44.99417463 1.82451198 -39.6517334 -3.74287415 C-26.78464175 -14.86353419 -11.53283316 -10.41827561 0 0 Z " fill="#000000" transform="translate(208.6947021484375,171.4342803955078)"/>
</svg>
