<?xml version="1.0" encoding="UTF-8"?>
<svg version="1.1" xmlns="http://www.w3.org/2000/svg" width="512" height="512">
<path d="M0 0 C1.69296707 -0.0099852 1.69296707 -0.0099852 3.4201355 -0.02017212 C5.79521056 -0.03025645 8.17031371 -0.03499045 10.54541016 -0.03466797 C14.17527623 -0.03905717 17.80394109 -0.07546725 21.43359375 -0.11328125 C23.7473917 -0.11914708 26.06119538 -0.12311803 28.375 -0.125 C29.45637238 -0.13937103 30.53774475 -0.15374207 31.65188599 -0.16854858 C37.77924959 -0.13139536 41.41201924 0.20776514 46.0546875 4.3359375 C49.52377818 8.55510183 50.96183652 11.85772997 51.0546875 17.3359375 C50.17940365 22.22574437 48.84357247 26.06981201 44.9921875 29.3359375 C40.285331 32.54060576 36.81237545 32.51403733 31.2421875 32.58203125 C29.42577705 32.615004 27.60937092 32.648215 25.79296875 32.68164062 C22.93411604 32.72879142 20.07527629 32.77315238 17.21630859 32.81274414 C14.45390429 32.85288 11.69187738 32.90435523 8.9296875 32.95703125 C8.09074951 32.9654454 7.25181152 32.97385956 6.38745117 32.98252869 C-3.4893862 33.18454713 -13.14721829 34.3368687 -20.31481934 41.75291443 C-24.10379599 45.99026556 -26.59287316 50.12696529 -28.8359375 55.328125 C-29.17825912 56.09504669 -29.52058075 56.86196838 -29.87327576 57.65213013 C-30.99221111 60.16677629 -32.09383843 62.68860018 -33.1953125 65.2109375 C-33.97921911 66.98221617 -34.76414955 68.75304205 -35.55004883 70.5234375 C-37.61122592 75.17528413 -39.65723137 79.83364156 -41.69903564 84.49401855 C-43.34647704 88.25072389 -45.00130464 92.00415428 -46.65615845 95.75759888 C-51.03643736 105.69371613 -55.39659435 115.63853728 -59.74447632 125.58886719 C-62.47644691 131.83860835 -65.21119217 138.08713657 -67.9453125 144.3359375 C-66.94243698 144.32705505 -65.93956146 144.31817261 -64.90629578 144.309021 C-55.41787336 144.22765015 -45.92952249 144.16783598 -36.44082928 144.12868881 C-31.56351271 144.10788566 -26.68647963 144.07970211 -21.80932617 144.03417969 C-17.095485 143.99046097 -12.38191513 143.96674581 -7.66788673 143.95642853 C-5.87668403 143.94908359 -4.08549482 143.93474154 -2.2944088 143.91301727 C11.31594078 143.75462217 22.53241481 144.77023506 33.0546875 154.3359375 C33.69921875 154.903125 34.34375 155.4703125 35.0078125 156.0546875 C42.36742222 163.35634753 45.92521209 173.01195578 50.0546875 182.3359375 C51.41471748 185.36714457 52.77977396 188.39599802 54.14892578 191.4230957 C55.03231765 193.37981993 55.90977516 195.33923608 56.78076172 197.30151367 C57.17924316 198.1907251 57.57772461 199.07993652 57.98828125 199.99609375 C58.5150647 201.18150757 58.5150647 201.18150757 59.05249023 202.39086914 C60.29029276 204.79320111 61.31950535 206.09341059 63.92394352 206.95258045 C66.0476023 207.33466275 67.99036788 207.46447153 70.14659119 207.46965027 C70.95262283 207.47391525 71.75865448 207.47818024 72.58911133 207.48257446 C73.4645459 207.48212128 74.33998047 207.48166809 75.24194336 207.48120117 C76.17083878 207.48455978 77.09973419 207.4879184 78.05677795 207.49137878 C81.12770932 207.50087857 84.19858611 207.50283133 87.26953125 207.50390625 C89.40418012 207.50711921 91.53882877 207.51048332 93.67347717 207.51399231 C98.14812735 207.51998093 102.62275821 207.52183245 107.09741211 207.52124023 C112.83190646 207.52113856 118.56627713 207.5347974 124.30074215 207.55201244 C128.70936146 207.56312832 133.11795082 207.56515958 137.52658272 207.56463051 C139.64088938 207.56581099 141.7551968 207.57023658 143.86948967 207.57796288 C146.82576047 207.58775547 149.78176201 207.58488767 152.73803711 207.57885742 C153.61144745 207.58447693 154.48485779 207.59009644 155.38473511 207.59588623 C159.66769562 207.57367594 163.23386577 207.51538939 167.0546875 205.3359375 C168.48338607 203.14833883 169.54652327 201.19134001 170.6171875 198.8359375 C170.945979 198.15321777 171.27477051 197.47049805 171.61352539 196.76708984 C173.80807397 192.16646993 175.8663356 187.50777298 177.921875 182.84375 C178.42904053 181.70873047 178.93620605 180.57371094 179.45874023 179.40429688 C180.45782923 177.16084023 181.44002356 174.90975921 182.40258789 172.65039062 C187.88841042 160.32017296 196.16303961 151.28459471 208.53686523 145.78955078 C216.31912489 143.25168829 224.77084761 143.85243947 232.87109375 143.82421875 C234.69670302 143.80735326 236.52230081 143.78920053 238.34788513 143.76982117 C243.12680473 143.72251797 247.90567775 143.6925817 252.68475342 143.66638184 C257.57183016 143.63647653 262.45874677 143.58998066 267.34570312 143.54492188 C276.91528048 143.45911293 286.48489099 143.39166847 296.0546875 143.3359375 C295.52115158 142.16318268 294.98761566 140.99042786 294.43791199 139.78213501 C292.18191235 134.82237893 289.93006871 129.86074518 287.6796875 124.8984375 C287.25618011 123.96477356 286.83267273 123.03110962 286.39633179 122.06915283 C281.55995014 111.39888796 276.75860604 100.71502351 272.06640625 89.98046875 C271.66820679 89.06973099 271.27000732 88.15899323 270.85974121 87.22065735 C268.96456623 82.88139288 267.07613153 78.53931982 265.19580078 74.19360352 C261.87054065 66.53397905 258.46631772 58.92387753 254.7890625 51.42578125 C254.47354935 50.77128998 254.15803619 50.11679871 253.83296204 49.44247437 C250.50976794 42.79103614 246.13778566 38.65023126 239.4921875 35.4609375 C232.93014038 33.31335844 226.44339028 33.19394096 219.61328125 33.16015625 C217.7949101 33.13697379 215.97655066 33.11285711 214.15820312 33.08789062 C211.31868417 33.05272554 208.47960339 33.02337826 205.63989258 33.01000977 C202.88049926 32.99451157 200.12234546 32.95431823 197.36328125 32.91015625 C196.51938339 32.91206467 195.67548553 32.91397308 194.80601501 32.91593933 C189.41432613 32.80449088 186.34948967 31.88395965 182.0546875 28.3359375 C178.42635087 24.51663578 177.74468292 21.45314744 177.5546875 16.3359375 C177.74468292 11.21872756 178.42635087 8.15523922 182.0546875 4.3359375 C187.52878013 -0.44777363 192.48637917 -0.24904608 199.55859375 -0.1953125 C200.67346664 -0.1991394 201.78833954 -0.20296631 202.93699646 -0.20690918 C205.29467675 -0.20962691 207.65238726 -0.20227559 210.01000977 -0.18554688 C213.58094422 -0.16427837 217.14983397 -0.18528151 220.72070312 -0.2109375 C242.35986265 -0.23777839 258.27389969 3.61101088 274.0546875 19.3359375 C274.60769531 19.86574219 275.16070312 20.39554688 275.73046875 20.94140625 C285.0409735 30.70363361 290.06370372 45.49947627 295.32141113 57.70193481 C297.2634973 62.20810308 299.22663527 66.70510427 301.1875 71.203125 C301.79059998 72.58846184 301.79059998 72.58846184 302.40588379 74.00178528 C307.58715421 85.88391057 312.93541212 97.69113118 318.29697037 109.49277782 C318.98983031 111.0302865 319.67544222 112.57109616 320.35148621 114.11607265 C322.59143735 119.21354048 324.9873037 124.19243438 327.52041626 129.15115356 C337.1882657 148.51796596 340.09663904 164.79857796 339.6059289 186.2960856 C339.5312848 190.2116627 339.53674055 194.12733 339.53121948 198.04350281 C339.51120249 204.58648673 339.43986524 211.12711317 339.33056641 217.66918945 C339.19101995 226.03455848 339.1365401 234.39827478 339.10858345 242.76467609 C339.08396271 250.0315836 339.02462731 257.29814612 338.95781469 264.56477332 C338.93763959 266.87076368 338.92144233 269.1767592 338.90552139 271.48278236 C338.87795493 275.10741984 338.82868525 278.73118858 338.76322556 282.35533333 C338.73220313 284.29818102 338.71965761 286.241297 338.70788574 288.18435669 C338.41423053 301.65703956 333.63529038 313.34150077 324.6796875 323.4609375 C316.65920257 331.12252914 304.8149213 336.45258245 293.78356075 336.47015858 C292.48655709 336.47461642 291.18955343 336.47907426 289.85324663 336.48366719 C288.41054149 336.4835779 286.96783635 336.48338805 285.52513123 336.48310852 C283.99509194 336.48640795 282.46505352 336.49013369 280.93501621 336.49425 C276.72390359 336.50426923 272.51280521 336.50798667 268.30168235 336.51063931 C263.76229806 336.51454261 259.22292506 336.52412097 254.68354797 336.53285217 C243.7173269 336.55261629 232.75110491 336.56268293 221.78487048 336.57157996 C216.62051161 336.57596313 211.45615378 336.58132988 206.29179573 336.58656883 C189.1237875 336.60358139 171.95577991 336.61807538 154.78776455 336.62531757 C150.33238664 336.62722747 145.87700874 336.6291478 141.42163086 336.63110352 C140.31426959 336.63158726 139.20690831 336.632071 138.06599063 336.6325694 C120.12903329 336.640869 102.19214266 336.66620463 84.25521445 336.69868419 C65.83922126 336.7317593 47.42326197 336.74976676 29.00723892 336.75296181 C18.667564 336.75512654 8.32798635 336.76386966 -2.01165962 336.78942299 C-10.81780962 336.81113617 -19.62383874 336.81917736 -28.43001247 336.80945621 C-32.92151353 336.80491326 -37.41276521 336.80679743 -41.90423203 336.82621765 C-46.02074754 336.84386258 -50.13683198 336.84284096 -54.25335216 336.82732036 C-55.73794594 336.82494629 -57.22256969 336.82925741 -58.70711774 336.84114901 C-73.56409728 336.95272982 -85.83516361 332.90393476 -97.0703125 322.9609375 C-104.53012454 315.15168416 -109.9465492 303.41773433 -110.18669128 292.6572876 C-110.21407883 291.49795715 -110.24146637 290.33862671 -110.26968384 289.14416504 C-110.29436737 287.87488159 -110.3190509 286.60559814 -110.34448242 285.29785156 C-110.37368543 283.94345786 -110.40304221 282.58906747 -110.43254089 281.23468018 C-110.69449813 268.742499 -110.84195005 256.24837126 -110.96006298 243.75409317 C-111.04103926 235.38666944 -111.15547003 227.02266326 -111.3581543 218.65722656 C-113.0085993 149.11942978 -113.0085993 149.11942978 -94.07949829 117.94616699 C-91.17381596 113.13665643 -89.01272067 108.05725313 -86.8828125 102.8671875 C-86.21760171 101.33320882 -85.54889321 99.80074083 -84.8762207 98.27001953 C-84.56141754 97.54671448 -84.24661438 96.82340942 -83.92227173 96.07818604 C-77.81319994 82.05707148 -71.65421689 68.05645723 -65.42651367 54.08764648 C-64.65972635 52.36425713 -63.89594989 50.63952434 -63.13549805 48.91333008 C-53.92250043 28.01444831 -43.77671806 12.85285542 -22.34375 3.1953125 C-14.79764748 0.49149727 -7.96370936 0.01645225 0 0 Z " fill="#000000" transform="translate(141.9453125,143.6640625)"/>
<path d="M0 0 C4.92502359 2.2866181 7.39629043 5.27474929 10 10 C11.18637892 14.34578808 11.15246094 18.68404868 11.15821838 23.15608215 C11.16562535 24.38143072 11.16562535 24.38143072 11.17318195 25.6315338 C11.18852789 28.36608888 11.19690971 31.10062053 11.20532227 33.83520508 C11.21490307 35.79651088 11.22491327 37.75781462 11.23532104 39.71911621 C11.26235422 45.04301734 11.28337241 50.36692733 11.30332303 55.69085908 C11.32519234 61.2549159 11.35257642 66.8189455 11.37937927 72.38298035 C11.42929335 82.9190492 11.47423697 93.45513319 11.51740164 103.99123162 C11.56678497 115.98630058 11.62169905 127.98134223 11.67708123 139.97638476 C11.79088155 164.65089768 11.89772486 189.32543681 12 214 C12.58491211 213.40461426 13.16982422 212.80922852 13.77246094 212.19580078 C15.95264291 209.98145887 18.13735138 207.77171133 20.32519531 205.56494141 C21.73334701 204.14182991 23.13623955 202.7135208 24.5390625 201.28515625 C25.87324219 199.94130859 25.87324219 199.94130859 27.234375 198.5703125 C28.45979004 197.32918701 28.45979004 197.32918701 29.70996094 196.06298828 C34.5951247 191.66217445 38.67371517 191.56268789 45.0859375 191.6875 C50.38740101 192.25602156 52.83972495 194.77865784 56.375 198.5 C58.72325726 203.55778486 58.97097307 208.51685793 58 214 C55.43409043 218.26187285 52.52629406 221.72606132 49.01953125 225.23925781 C48.53769379 225.72459991 48.05585632 226.20994202 47.55941772 226.70999146 C45.9820687 228.29606812 44.39760682 229.87480428 42.8125 231.453125 C41.7064949 232.56047889 40.6007867 233.6681294 39.49536133 234.77606201 C37.18536402 237.08899805 34.87181293 239.39830271 32.55566406 241.70507812 C29.58979314 244.65952851 26.63302786 247.62290369 23.67884827 250.58903885 C21.40050105 252.87461565 19.1174087 255.15540447 16.83285522 257.43477631 C15.7405626 258.52573687 14.64974791 259.61817929 13.56045532 260.71213531 C12.03858404 262.23909277 10.51043633 263.75948094 8.98046875 265.27832031 C8.11317139 266.14402649 7.24587402 267.00973267 6.35229492 267.90167236 C2.33613404 271.48422543 -0.52211754 272.30689717 -5.875 272.375 C-6.88304687 272.40335937 -7.89109375 272.43171875 -8.9296875 272.4609375 C-14.9443147 271.5579782 -19.0662897 267.18485745 -23.23925781 263.01953125 C-23.72459991 262.53769379 -24.20994202 262.05585632 -24.70999146 261.55941772 C-26.29606812 259.9820687 -27.87480428 258.39760682 -29.453125 256.8125 C-30.56047889 255.7064949 -31.6681294 254.6007867 -32.77606201 253.49536133 C-35.08899805 251.18536402 -37.39830271 248.87181293 -39.70507812 246.55566406 C-42.65952851 243.58979314 -45.62290369 240.63302786 -48.58903885 237.67884827 C-50.87461565 235.40050105 -53.15540447 233.1174087 -55.43477631 230.83285522 C-56.52573687 229.7405626 -57.61817929 228.64974791 -58.71213531 227.56045532 C-60.23909277 226.03858404 -61.75948094 224.51043633 -63.27832031 222.98046875 C-64.14402649 222.11317139 -65.00973267 221.24587402 -65.90167236 220.35229492 C-70.30850898 215.41208482 -70.43838031 211.38116334 -70.3125 204.9140625 C-69.73806854 199.55748911 -67.25456829 197.07951225 -63.3125 193.6875 C-59.24210468 191.61390238 -55.58129512 190.43614829 -51 191 C-43.1982088 194.07155421 -38.25383991 199.27871847 -32.5 205.25 C-31.5821875 206.18585938 -30.664375 207.12171875 -29.71875 208.0859375 C-27.46976986 210.38177139 -25.23071071 212.68643432 -23 215 C-22.99853344 213.94901564 -22.99706688 212.89803127 -22.99555588 211.8151989 C-22.95897361 186.25166269 -22.8995407 160.68825762 -22.81609726 135.12483025 C-22.77627469 122.7625799 -22.74389852 110.40039352 -22.72900391 98.03808594 C-22.71600411 87.26407966 -22.68908214 76.49021392 -22.64538693 65.71628678 C-22.62273462 60.01066449 -22.60709159 54.30521577 -22.60811615 48.59954453 C-22.60886053 43.22984914 -22.59099902 37.860538 -22.55883217 32.490942 C-22.55030936 30.51970992 -22.54859933 28.54843486 -22.55419731 26.57719231 C-22.56082286 23.88571771 -22.54295152 21.19547084 -22.51898193 18.50411987 C-22.52674235 17.72395252 -22.53450277 16.94378517 -22.54249835 16.13997638 C-22.46051796 10.94052003 -21.26094526 8.01808585 -18 4 C-12.72867143 -1.00776214 -6.89190982 -0.92775709 0 0 Z " fill="#000000" transform="translate(262,32)"/>
</svg>
